<?xml version="1.0" encoding="UTF-8"?>
<svg id="Layer_1" data-name="Layer 1" xmlns="http://www.w3.org/2000/svg" viewBox="0 0 3556.66 754">
  <g>
    <path d="m0,754L177.97,14h137.03l-179,740H0Z"/>
    <path d="m760.83,375.87l-135,24c-4.56-26.83-14.89-47.03-31-60.62-16.11-13.58-37.02-20.38-62.72-20.38-34.19,0-61.44,11.83-81.78,35.48s-30.5,63.22-30.5,118.67c0,61.67,10.31,105.23,30.95,130.67,20.62,25.45,48.33,38.17,83.11,38.17,25.98,0,47.27-7.42,63.84-22.3,16.56-14.86,28.27-40.42,35.09-76.7l135,23c-14,62.02-40.84,108.86-80.53,140.52s-92.89,47.48-159.58,47.48c-75.81,0-136.23-23.97-181.3-71.91s-67.59-114.31-67.59-199.11,22.59-152.53,67.81-200.31c45.2-47.78,106.34-71.67,183.44-71.67,63.09,0,113.25,13.59,150.5,40.77,37.23,27.19,63.98,68.59,80.25,124.23Z"/>
    <path d="m772.98,475.03c0-45.66,11.22-89.84,33.67-132.56s54.27-75.33,95.44-97.83c41.16-22.5,87.12-33.77,137.91-33.77,78.42,0,142.69,25.53,192.81,76.56,50.11,51.03,75.17,115.53,75.17,193.47s-25.31,143.75-75.91,195.44c-50.61,51.69-114.31,77.53-191.11,77.53-47.52,0-92.83-10.77-135.95-32.28-43.12-21.53-75.91-53.08-98.36-94.66s-33.67-92.22-33.67-151.91Zm141,7.34c0,51.53,12.19,91,36.56,118.41s54.44,41.09,90.19,41.09,65.7-13.69,89.92-41.09,36.33-67.2,36.33-119.39-12.11-90-36.33-117.41-54.19-41.11-89.92-41.11-65.81,13.7-90.19,41.11-36.56,66.86-36.56,118.39Z"/>
    <path d="m1698.82,740.87v-77.64c-18.94,27.67-43.81,49.7-74.64,66.08-30.83,16.36-63.36,24.56-97.61,24.56s-66.23-7.69-93.97-23.02c-27.73-15.34-47.8-36.91-60.19-64.67-12.41-27.75-18.59-66.12-18.59-115.12V221.87h137v238.97c0,73.12,2.53,117.94,7.59,134.42s14.28,29.55,27.69,39.17c13.39,9.62,30.38,14.44,50.97,14.44,23.53,0,44.61-6.44,63.23-19.34,18.62-12.89,31.36-28.89,38.22-47.98s10.3-65.86,10.3-140.3v-219.38h137v519h-127Z"/>
    <path d="m2378.66,740.87h-137v-264.47c0-55.94-2.97-92.12-8.88-108.56-5.91-16.42-15.52-29.19-28.81-38.3-13.31-9.11-29.31-13.67-48.03-13.67-23.97,0-45.48,6.52-64.53,19.52-19.05,13.02-32.09,30.25-39.16,51.72s-10.59,61.16-10.59,119.06v234.7h-137V221.87h127v76.17c45.47-58.11,102.73-87.17,171.78-87.17,30.42,0,58.23,5.45,83.44,16.36,25.19,10.91,44.25,24.81,57.17,41.72,12.92,16.92,21.92,36.12,27,57.59,5.06,21.47,7.61,52.22,7.61,92.23v322.09Z"/>
    <path d="m2694.5,221.87v109h-94v210.25c0,42.59.89,67.41,2.69,74.44,1.8,7.05,5.88,12.86,12.23,17.44,6.36,4.59,14.11,6.88,23.27,6.88,12.72,0,31.16-4.39,55.31-13.19l11.5,106.64c-31.81,13.69-67.84,20.55-108.09,20.55-24.69,0-46.92-4.17-66.72-12.52s-34.33-19.14-43.58-32.39-15.67-31.16-19.23-53.73c-2.92-16.03-4.38-48.41-4.38-97.16v-227.2h-63v-109h63v-103l137.3-104.87-.3,207.87h94Z"/>
    <path d="m3030.51,576.87l137,23c-17.58,50.19-45.33,88.41-83.25,114.64-37.92,26.25-85.36,39.36-142.31,39.36-90.16,0-156.89-29.52-200.17-88.55-34.19-47.28-51.27-106.95-51.27-179.05,0-86.09,22.44-153.52,67.33-202.27,44.88-48.75,101.64-73.14,170.28-73.14,77.08,0,137.91,25.52,182.47,76.53,44.56,51.03,65.88,129.19,63.92,234.47h-343c.97,40.72,11.98,72.41,33.08,95.05s47.36,33.95,78.83,33.95c21.41,0,39.41-5.83,54-17.52s25.62-30.52,33.09-56.48Zm8-139c-.98-39.84-11.22-70.14-30.69-90.89-19.48-20.73-43.19-31.11-71.09-31.11-29.88,0-54.56,10.95-74.03,32.83-19.5,21.89-29.08,51.61-28.73,89.17h204.55Z"/>
    <path d="m3357.66,740.87h-137V221.87h127v73.73c21.86-34.83,41.52-57.66,58.98-68.48,17.45-10.83,37.28-16.25,59.47-16.25,31.31,0,61.5,8.62,90.55,25.88l-42.5,119.59c-23.16-14.97-44.67-22.47-64.56-22.47s-35.53,5.3-48.91,15.86c-13.38,10.58-23.89,29.69-31.55,57.34s-11.48,85.58-11.48,173.73v160.06Z"/>
  </g>
  <text/>
</svg>